<?xml version="1.0" standalone="no"?>
<!DOCTYPE svg PUBLIC "-//W3C//DTD SVG 20010904//EN"
 "http://www.w3.org/TR/2001/REC-SVG-20010904/DTD/svg10.dtd">
<svg version="1.0" xmlns="http://www.w3.org/2000/svg"
 width="207.000000pt" height="243.000000pt" viewBox="0 0 207.000000 243.000000"
 preserveAspectRatio="xMidYMid meet">

<g transform="translate(0.000000,243.000000) scale(0.100000,-0.100000)"
fill="#000000" stroke="none">
<path d="M298 2373 c-145 -154 -238 -333 -279 -538 -19 -94 -16 -310 4 -402
56 -249 182 -452 375 -605 48 -39 66 -48 75 -39 9 9 4 18 -23 39 -381 292
-514 763 -339 1200 42 106 111 213 191 298 61 64 84 104 60 104 -5 0 -34 -26
-64 -57z"/>
<path d="M1700 2418 c0 -7 28 -43 63 -80 120 -129 214 -311 253 -490 19 -88
22 -286 5 -378 -24 -132 -77 -263 -156 -386 -38 -59 -180 -208 -245 -256 -25
-19 -32 -29 -24 -37 8 -8 28 2 75 37 256 194 418 552 396 873 -19 259 -110
473 -281 657 -67 71 -86 84 -86 60z"/>
<path d="M460 2254 c-59 -55 -147 -179 -184 -259 -132 -288 -88 -634 113 -885
71 -88 212 -207 232 -194 18 11 8 23 -54 68 -108 76 -209 201 -263 322 -49
112 -68 200 -68 329 -1 151 18 234 86 373 41 85 66 120 134 192 78 82 97 110
75 110 -6 0 -37 -25 -71 -56z"/>
<path d="M1530 2298 c0 -6 24 -36 54 -65 113 -108 187 -234 228 -385 32 -116
32 -298 0 -412 -57 -200 -149 -328 -349 -483 -15 -11 -25 -25 -20 -29 25 -26
207 133 283 247 227 342 178 803 -116 1083 -58 55 -80 67 -80 44z"/>
<path d="M555 2098 c-47 -51 -79 -98 -110 -163 -55 -115 -69 -175 -68 -305 2
-179 65 -330 193 -459 67 -68 133 -111 147 -97 4 5 -5 18 -22 29 -62 44 -181
174 -212 232 -99 188 -102 404 -10 590 36 73 107 166 147 195 31 22 40 50 16
50 -8 0 -44 -32 -81 -72z"/>
<path d="M1420 2161 c0 -5 28 -37 63 -73 114 -116 180 -277 180 -443 0 -204
-96 -395 -260 -517 -53 -38 -66 -58 -39 -58 47 0 210 169 261 269 98 194 91
446 -16 637 -54 95 -189 228 -189 185z"/>
<path d="M696 1983 c-87 -86 -135 -191 -143 -313 -12 -167 64 -332 194 -421
71 -49 74 -21 3 40 -78 68 -118 127 -147 218 -50 158 -12 316 106 445 45 49
53 68 31 68 -4 0 -24 -17 -44 -37z"/>
<path d="M1310 2014 c0 -4 24 -32 54 -64 60 -65 88 -117 111 -205 26 -103 14
-209 -38 -315 -20 -42 -99 -130 -156 -173 -16 -13 -20 -22 -13 -29 21 -21 127
73 185 164 64 102 84 259 47 379 -27 90 -58 145 -116 204 -38 39 -74 58 -74
39z"/>
<path d="M790 1873 c-80 -91 -109 -213 -76 -326 27 -93 111 -197 159 -197 27
0 20 12 -32 57 -30 26 -60 65 -78 100 -24 49 -28 70 -27 138 0 67 4 89 27 133
15 29 41 64 57 79 17 14 30 32 30 39 0 29 -21 21 -60 -23z"/>
<path d="M1220 1909 c0 -6 16 -29 35 -52 60 -70 80 -122 80 -212 0 -69 -4 -88
-30 -139 -18 -35 -49 -75 -77 -99 -52 -43 -59 -57 -29 -57 28 0 107 85 139
149 23 49 27 68 27 146 -1 106 -20 158 -85 229 -42 46 -60 56 -60 35z"/>
<path d="M991 1799 c-54 -11 -81 -30 -107 -75 -44 -74 -22 -181 46 -221 35
-21 36 -23 15 -190 -55 -447 -232 -830 -524 -1135 l-90 -95 34 -33 34 -33 61
56 c33 31 79 78 102 104 22 27 46 51 52 55 6 4 190 8 409 8 l398 0 37 -42 c20
-24 68 -73 107 -110 l70 -67 34 34 34 34 -92 97 c-99 103 -173 198 -240 307
-150 246 -253 558 -284 863 l-13 123 35 23 c58 38 76 71 76 138 0 44 -6 66
-21 86 -44 60 -108 87 -173 73z m73 -849 c21 -69 40 -135 43 -147 5 -23 4 -23
-84 -23 -49 0 -92 2 -94 5 -3 2 10 48 27 102 18 54 38 127 45 162 15 72 12 78
63 -99z m116 -316 c22 -48 40 -88 40 -90 0 -2 -90 -4 -200 -4 -110 0 -200 3
-200 6 0 4 18 44 40 90 l40 84 120 0 119 0 41 -86z m136 -246 l44 -68 -341 0
-341 0 21 33 c12 17 32 49 44 70 l22 37 254 -2 253 -3 44 -67z"/>
</g>
</svg>
